<svg xmlns="http://www.w3.org/2000/svg" width="46" height="46" fill="none" xmlns:v="https://vecta.io/nano"><g filter="url(#A)"><path d="M4 12.667c0-4.434 0-6.651.863-8.344.759-1.49 1.97-2.701 3.46-3.46C10.016 0 12.233 0 16.667 0h12.667c4.434 0 6.651 0 8.344.863 1.49.759 2.701 1.97 3.46 3.46C42 6.016 42 8.233 42 12.667v12.667c0 4.434 0 6.651-.863 8.344-.759 1.49-1.97 2.701-3.46 3.46-1.693.863-3.91.863-8.344.863H16.667c-4.434 0-6.651 0-8.344-.863-1.49-.759-2.701-1.97-3.46-3.46C4 31.984 4 29.767 4 25.333V12.667z" fill="#3ddc84"/><circle cx="23" cy="19" r="11" fill="#fff"/><path fill-rule="evenodd" d="M19.154 19c0 2.124 1.722 3.846 3.846 3.846s3.846-1.722 3.846-3.846H29a6 6 0 1 1-12 0h2.154z" fill="#3ddc84"/></g><defs><filter id="A" x="0" y="0" width="46" height="46" filterUnits="userSpaceOnUse" color-interpolation-filters="sRGB"><feFlood flood-opacity="0" result="A"/><feColorMatrix in="SourceAlpha" values="0 0 0 0 0 0 0 0 0 0 0 0 0 0 0 0 0 0 127 0"/><feOffset dy="4"/><feGaussianBlur stdDeviation="2"/><feColorMatrix values="0 0 0 0 0 0 0 0 0 0 0 0 0 0 0 0 0 0 0.25 0"/><feBlend in2="A"/><feBlend in="SourceGraphic"/></filter></defs></svg>